<?xml version="1.0" encoding="iso-8859-1"?>
<!-- Uploaded to: SVG Repo, www.svgrepo.com, Generator: SVG Repo Mixer Tools -->
<!DOCTYPE svg PUBLIC "-//W3C//DTD SVG 1.1//EN" "http://www.w3.org/Graphics/SVG/1.1/DTD/svg11.dtd">
<svg fill="#000000" height="800px" width="800px" version="1.1" id="Capa_1" xmlns="http://www.w3.org/2000/svg" xmlns:xlink="http://www.w3.org/1999/xlink" 
	 viewBox="0 0 297 297" xml:space="preserve">
<path d="M236.028,194.739c5.832-29.458-10.705-103.829-15.059-122.499c1.732-1.416,2.822-3.563,2.822-5.975V15.419h32.42
	c4.262,0,7.714-3.449,7.714-7.708c0-4.261-3.452-7.711-7.714-7.711H39.234c-4.258,0-7.71,3.45-7.71,7.711
	c0,4.259,3.452,7.708,7.71,7.708h0.558v26.683l0,0c0,0-7.482,3.183-7.72,7.259l-2.069,34.964c-0.124,2.119,0.626,4.208,2.083,5.754
	c1.458,1.545,3.484,2.433,5.607,2.433h20.566c2.123,0,4.153-0.888,5.609-2.433c1.457-1.546,2.215-3.629,2.089-5.748l-2.059-34.946
	c-0.24-4.076-3.612-7.24-7.695-7.24h-0.995V15.419h16.448v50.847c0,2.475,1.153,4.674,2.963,6.082
	c-3.567,17.104-18.677,92.775-12.939,122.219c-18.722,16.95-31.184,50.285-31.184,69.646c0,2.988,1.727,5.712,4.433,6.981
	c41.974,19.701,81.549,25.808,114.478,25.806c17.337,0,32.832-1.693,45.86-3.984c41.041-7.215,66.734-21.478,67.81-22.08
	c2.428-1.366,3.935-3.933,3.935-6.723C267.011,244.92,254.638,211.744,236.028,194.739z M45.87,77.094l1.15-19.533h1.909
	l1.15,19.533H45.87z M81.304,200.137l40.915,43.974l-61.072-24.762C67.141,209.844,74.262,202.369,81.304,200.137z M204.242,74.007
	c1.257,7.197,1.546,13.307,1.527,17.833c-40.864-0.482-62.727-9.607-74.367-17.833H204.242z M92.438,86.426
	c-0.591-4.311-0.807-8.308-0.646-12.419h7.876C97.595,78.118,94.988,82.656,92.438,86.426z M94.358,109.252
	c0.602-0.683,12.841-14.623,19.822-29.91c13.094,13.805,39.882,27.83,94.695,27.908c0.221,2.144,0.044,5.649-1.505,10.043
	c-2.072,5.88-5.068,8.981-6.436,9.879c-1.598-0.521-3.328-0.515-4.933,0.041c-2.019,0.698-3.658,2.201-4.526,4.155
	c-8.301,18.681-24.433,40.504-42.567,40.504c-18.168,0-34.313-21.888-42.616-40.628c-0.899-2.025-2.628-3.569-4.742-4.232
	c-1.656-0.519-3.42-0.463-5.016,0.136c-1.385-0.926-4.347-4.028-6.402-9.853c-0.716-2.021-1.129-3.851-1.355-5.449
	C90.89,111.788,92.92,110.874,94.358,109.252z M115.331,199.412c4.258,0,7.721-3.433,7.721-7.693V178.23
	c8.225,5.586,16.476,9.064,25.856,9.064c9.67,0,18.348-3.687,26.568-9.569v13.993c0,4.261,3.464,7.693,7.725,7.693h12.581
	l-47.03,50.546l-47.03-50.546H115.331z M216.198,200.137c7.42,2.35,14.933,10.513,21.114,20.75l-62.925,24.182L216.198,200.137z
	 M211.993,183.991h-21.098v-21.653c5.14-6.158,8.945-12.939,12.333-19.738c1.323-0.239,2.662-0.677,3.979-1.307
	c3.612-1.726,7.023-4.934,9.853-9.126c3.266,20.348,5.531,40.598,4.609,53.549C218.544,184.607,215.31,183.991,211.993,183.991z
	 M208.37,15.419v43.172H87.075V15.419H208.37z M79.879,131.303c1.45,2.283,3.067,4.323,4.805,6c3.108,3.004,6.54,4.816,9.936,5.343
	c3.549,7.12,7.872,14.223,13.014,20.595v20.751H85.51c-3.251,0-6.424,0.593-9.495,1.663
	C74.974,172.509,76.955,151.91,79.879,131.303z M192.597,277.826c-34.664,6.096-87.839,7.683-146.399-18.437
	c0.865-7.89,3.681-17.335,7.695-26.377c0.208,0.111,0.419,0.211,0.642,0.298l91.32,37.02c0.928,0.376,1.909,0.566,2.898,0.566
	c0.936,0,1.872-0.173,2.763-0.515l92.828-35.675c3.657,8.604,6.2,17.463,6.984,24.907
	C242.821,263.696,221.824,272.686,192.597,277.826z"/>
</svg>